<?xml version="1.0" encoding="utf-8"?>
<!-- Generator: Adobe Illustrator 24.1.1, SVG Export Plug-In . SVG Version: 6.00 Build 0)  -->
<svg version="1.1" id="Layer_1" xmlns="http://www.w3.org/2000/svg" xmlns:xlink="http://www.w3.org/1999/xlink" x="0px" y="0px"
	 viewBox="0 0 512 512" style="enable-background:new 0 0 512 512;" xml:space="preserve">
<style type="text/css">
	.st0{fill:#346DA6;}
	.st1{fill:#FFFFFF;}
</style>
<g id="XMLID_1_">
	<path id="XMLID_3_" class="st0" d="M25.2,0h461.6c14,0,25.2,11.2,25.2,25.2v461.6c0,14-11.2,25.2-25.2,25.2H25.2
		C11.2,512,0,500.8,0,486.8V25.2C0,11.2,11.2,0,25.2,0z"/>
	<path id="XMLID_4_" class="st1" d="M217.3,404.8V256.5h-29.8V207h29.8v-29.8c0-40.1,12.1-69,56-69h52.2v49.4h-36.4
		c-18.7,0-22.4,12.1-22.4,25.2V207h56.9l-8.4,49.4h-48.5v148.3H217.3z"/>
</g>
</svg>
