<?xml version="1.0" encoding="utf-8"?>
<!-- Generator: Adobe Illustrator 26.5.0, SVG Export Plug-In . SVG Version: 6.00 Build 0)  -->
<svg version="1.1" id="Layer_1" xmlns="http://www.w3.org/2000/svg" xmlns:xlink="http://www.w3.org/1999/xlink" x="0px" y="0px"
	 viewBox="0 0 512 539" style="enable-background:new 0 0 512 539;" xml:space="preserve">
<style type="text/css">
	.st0{fill:#DB4437;}
	.st1{fill:#FFFFFF;fill-opacity:0.2;}
	.st2{fill:#3E2723;fill-opacity:0.2;}
	.st3{fill:#EEEEEE;}
	.st4{opacity:0.4;fill:#FFFFFF;enable-background:new    ;}
	.st5{opacity:0.1;fill:#3E2723;enable-background:new    ;}
</style>
<g id="XMLID_1_">
	<circle id="XMLID_21_" class="st0" cx="256" cy="269.5" r="256"/>
	<path id="XMLID_20_" class="st1" d="M256,16.45c140.98,0,255.16,113.76,256,254.6v-1.4c0-141.4-114.6-256-256-256S0,128.1,0,269.5
		v1.4C0.84,130.21,115.02,16.45,256,16.45z"/>
	<path id="XMLID_19_" class="st2" d="M256,522.55c-140.98,0-255.16-113.76-256-254.6v1.4c0,141.4,114.6,256,256,256
		s256-114.6,256-256v-1.4C511.16,408.79,396.98,522.55,256,522.55z"/>
	<g id="XMLID_2_">
		<g id="XMLID_65_">
			<g>
				<defs>
					<circle id="SVGID_1_" cx="256" cy="269.5" r="256"/>
				</defs>
				<clipPath id="SVGID_00000099621496800301286340000015632684400966332299_">
					<use xlink:href="#SVGID_1_"  style="overflow:visible;"/>
				</clipPath>
			</g>
		</g>
		<g>
			<defs>
				<circle id="SVGID_00000104690571777692634940000001361298294791986828_" cx="256" cy="269.5" r="256"/>
			</defs>
			<clipPath id="SVGID_00000173843891248382636290000016784432901982775743_">
				<use xlink:href="#SVGID_00000104690571777692634940000001361298294791986828_"  style="overflow:visible;"/>
			</clipPath>
		</g>
	</g>
	<path id="XMLID_16_" class="st3" d="M453.79,246.21h-46.57v-46.57h-34.79v46.57h-46.57v34.93h46.57v46.57h34.93v-46.57h46.43"/>
	<path id="XMLID_61_" class="st4" d="M372.43,199.64h34.93v2.95h-34.93V199.64z M325.86,246.21h46.57v2.95h-46.57V246.21z
		 M407.22,246.21h46.57v2.95h-46.57V246.21z"/>
	<path id="XMLID_57_" class="st5" d="M372.43,327.71h34.93v2.95h-34.93V327.71z M325.86,281.14h46.57v2.95h-46.57V281.14z
		 M407.22,281.14h46.57v2.95h-46.57V281.14z"/>
	<path id="XMLID_9_" class="st3" d="M186.14,291.66v-43.34H295c1.68,7.29,2.95,14.17,2.95,23.85c0,66.49-44.61,113.62-111.66,113.62
		c-64.25,0-116.43-52.18-116.43-116.43s52.18-116.43,116.43-116.43c31.42,0,57.65,11.5,77.85,30.44l-33.1,32.12
		c-8.42-7.86-23-17.25-44.75-17.25c-38.58,0-70,31.98-70,71.26s31.42,71.26,70,71.26c44.61,0,61.02-30.86,63.96-49.1L186.14,291.66
		L186.14,291.66z"/>
	<path id="XMLID_52_" class="st4" d="M186.14,343.56c44.61,0,61.02-30.86,63.96-49.1h-0.56c-4.21,18.52-21.04,46.15-63.4,46.15
		c-38.01,0-69.16-31.14-69.86-69.86c0,0.42-0.14,0.98-0.14,1.4C116.29,311.72,147.71,343.56,186.14,343.56z M186.14,251.26H295
		c1.54,6.87,2.67,13.47,2.81,22.16v-1.26c0-9.54-1.12-16.55-2.95-23.85H186v2.95H186.14z M186.14,156.02
		c30.58,0,56.25,11.08,76.17,29.04l1.68-1.54c-20.2-18.8-46.43-30.44-77.85-30.44c-64.25,0-116.43,52.18-116.43,116.43
		c0,0.42,0.14,0.98,0.14,1.4C70.7,207.36,122.46,156.02,186.14,156.02z"/>
	<path id="XMLID_44_" class="st5" d="M186.14,198.24c-38.58,0-70,31.98-70,71.26c0,0.42,0.14,0.98,0.14,1.4
		c0.84-38.58,31.7-69.86,69.86-69.86c21.88,0,36.47,9.4,44.75,17.25l33.1-32.12c-0.42-0.42-0.98-0.98-1.68-1.4l-31.42,30.44
		C222.61,207.78,208.03,198.24,186.14,198.24z M186.14,385.93c-63.82,0-115.59-51.34-116.29-115.02c0,0.42-0.14,0.98-0.14,1.4
		c0,64.25,52.18,116.43,116.43,116.43c67.19,0,111.66-47.27,111.66-113.62v-1.68C297.24,339.22,252.91,385.93,186.14,385.93z
		 M186.14,291.66v2.95h63.4c0.28-0.98,0.42-1.96,0.56-2.95H186.14z"/>
</g>
</svg>
